<svg width="20" height="20" viewBox="0 0 20 20" fill="none" xmlns="http://www.w3.org/2000/svg">
<path d="M10 9.82998C12.2658 9.82998 14.1026 8.00257 14.1026 5.74835C14.1026 3.49413 12.2658 1.66672 10 1.66672C7.73426 1.66672 5.89748 3.49413 5.89748 5.74835C5.89748 8.00257 7.73426 9.82998 10 9.82998Z" fill="#D9D9D9"/>
<path d="M12.1368 11.5307H7.86329C5.38466 11.5307 3.33337 13.5716 3.33337 16.0375C3.33337 16.6328 3.58978 17.143 4.1026 17.3981C4.87184 17.8233 6.58124 18.3335 10 18.3335C13.4188 18.3335 15.1282 17.8233 15.8975 17.3981C16.3248 17.143 16.6667 16.6328 16.6667 16.0375C16.6667 13.4865 14.6154 11.5307 12.1368 11.5307Z" fill="#D9D9D9"/>
</svg>
